<?xml version="1.0" encoding="UTF-8" standalone="no"?>
<svg
   width="456"
   height="456"
   viewBox="0 0 456 456"
   version="1.1"
   xml:space="preserve"
   style="fill-rule:evenodd;clip-rule:evenodd;stroke-linejoin:round;stroke-miterlimit:2;"
   id="svg12467"
   sodipodi:docname="splash.svg"
   inkscape:version="1.2.2 (732a01da63, 2022-12-09)"
   xmlns:inkscape="http://www.inkscape.org/namespaces/inkscape"
   xmlns:sodipodi="http://sodipodi.sourceforge.net/DTD/sodipodi-0.dtd"
   xmlns="http://www.w3.org/2000/svg"
   xmlns:svg="http://www.w3.org/2000/svg"><defs
   id="defs12471"><clipPath
     clipPathUnits="userSpaceOnUse"
     id="clipPath9150"><ellipse
       style="display:none;fill:#ffffff;fill-opacity:1;stroke:#ffffff;stroke-width:7.56576;stroke-dasharray:none;stroke-opacity:0"
       id="ellipse9152"
       cx="537.13153"
       cy="28.998743"
       rx="17.399246"
       ry="64.919769"
       d="m 554.53078,28.998743 a 17.399246,64.919769 0 0 1 -17.39925,64.919769 17.399246,64.919769 0 0 1 -17.39925,-64.919769 17.399246,64.919769 0 0 1 17.39925,-64.919769 17.399246,64.919769 0 0 1 17.39925,64.919769 z" /><path
       id="lpe_path-effect9154"
       style="fill:#ffffff;fill-opacity:1;stroke:#ffffff;stroke-width:7.56576;stroke-dasharray:none;stroke-opacity:0"
       class="powerclip"
       d="m 309.77402,-1.5472223 h 242.2235 V 180.90114 H 309.77402 Z M 554.53078,28.998743 a 17.399246,64.919769 0 0 0 -17.39925,-64.919769 17.399246,64.919769 0 0 0 -17.39925,64.919769 17.399246,64.919769 0 0 0 17.39925,64.919769 17.399246,64.919769 0 0 0 17.39925,-64.919769 z" /></clipPath><inkscape:path-effect
     effect="powerclip"
     id="path-effect9154"
     is_visible="true"
     lpeversion="1"
     inverse="true"
     flatten="false"
     hide_clip="false"
     message="Use fill-rule evenodd on &lt;b&gt;fill and stroke&lt;/b&gt; dialog if no flatten result after convert clip to paths." /></defs><sodipodi:namedview
   id="namedview12469"
   pagecolor="#505050"
   bordercolor="#eeeeee"
   borderopacity="1"
   inkscape:showpageshadow="0"
   inkscape:pageopacity="0"
   inkscape:pagecheckerboard="0"
   inkscape:deskcolor="#505050"
   showgrid="false"
   inkscape:zoom="0.9616228"
   inkscape:cx="193.42303"
   inkscape:cy="290.13455"
   inkscape:window-width="1920"
   inkscape:window-height="1057"
   inkscape:window-x="-8"
   inkscape:window-y="-8"
   inkscape:window-maximized="1"
   inkscape:current-layer="svg12467" />
    
    
    
    
<path
   style="fill:#ffffff;fill-opacity:1;stroke:#ffffff;stroke-width:14.4126;stroke-dasharray:none;stroke-opacity:1"
   id="path1418"
   d="m 335.13435,15.041719 c 5.15917,-0.761844 10.36168,-1.57881 15.5858,-1.769394 0.97522,-0.03559 1.95178,0.0051 2.92767,0.0076 2.34077,0.129515 4.64735,0.551407 6.85289,1.333557 0.50079,0.177601 1.90929,0.906046 1.47229,0.60799 -5.96427,-4.067937 -3.06625,-1.706094 -2.21687,-0.987801 0.18086,0.255906 0.42297,0.479431 0.54256,0.767723 0.56475,1.361376 -0.35432,3.018397 -0.96002,4.171142 -0.57146,1.087557 -2.85143,4.769553 -3.29709,5.498807 -4.6719,7.840382 -9.35084,15.694429 -13.37509,23.878935 -0.84356,1.715637 -1.62925,3.45795 -2.44388,5.186923 -3.32219,7.215767 -6.03665,14.68855 -8.11911,22.335108 -1.47508,5.416334 -1.7876,7.193341 -2.99015,12.707541 -2.86426,15.46941 -4.54249,31.12151 -5.9658,46.77171 -0.80097,8.76965 -1.27426,17.56671 -1.14649,26.37182 0.19594,3.80864 -0.25869,4.90446 5.02887,6.45625 0.53341,0.15657 0.87355,-0.68864 1.22593,-1.1106 1.12489,-1.34698 3.12034,-4.71824 3.86513,-5.91788 0.98903,-1.62139 1.96994,-3.2475 2.96705,-4.86408 4.21274,-6.83004 3.98081,-6.28897 8.38436,-13.61749 6.50002,-10.81756 4.88874,-8.49491 12.10363,-20.10967 2.6111,-4.20341 5.2868,-8.36807 7.9302,-12.5521 11.8486,-18.106346 24.29664,-35.899702 38.09114,-52.653936 7.69437,-9.345246 10.05323,-11.617706 18.06942,-20.195986 3.88248,-3.904684 8.98946,-9.189914 13.22793,-12.958913 1.3965,-1.24182 2.79275,-2.503972 4.35691,-3.536858 0.83886,-0.553946 2.86618,-0.192907 2.78626,-1.18009 -0.08,-0.989601 -2.25856,-1.490789 -2.94322,-0.758229 -0.89353,0.956051 0.013,2.591094 0.0193,3.886643 -0.36543,2.188407 -0.64839,4.391537 -1.09629,6.565214 -0.69694,3.382223 -1.52644,6.737213 -2.33675,10.095163 -2.61165,10.822927 -4.02445,15.986719 -6.88727,26.965008 -4.89045,18.753887 -2.78343,10.55696 -7.48272,29.188185 -4.82716,19.388179 -8.89802,38.944209 -11.97199,58.670599 -0.19214,1.30868 -0.40512,2.61464 -0.57644,3.9261 -0.10105,0.77357 -0.2667,1.5483 -0.24057,2.32775 0.0651,1.9419 4.56757,2.45046 5.76941,2.2333 1.23443,-0.22306 1.63306,-1.86625 2.42494,-2.81935 1.32903,-1.59962 2.62478,-3.2254 3.93717,-4.83811 1.90422,-2.31995 3.79536,-4.65028 5.7127,-6.95988 9.93422,-11.9667 5.47498,-6.39146 16.37155,-19.60674 11.12544,-13.49286 22.13903,-27.07413 33.25905,-40.57149 13.52841,-16.266684 14.52148,-17.79926 28.85968,-33.391738 6.41233,-6.973274 21.2519,-23.704842 27.53929,-30.247364 6.66993,-6.76504 3.52967,-3.644158 9.39594,-9.386546 l -3.58147,-2.136864 v 0 c -5.55491,5.941934 -2.57076,2.723131 -8.93834,9.668923 -7.87791,8.666607 -23.58169,25.963289 -31.25005,34.80921 -7.16293,8.262878 -5.8385,7.419016 -12.87137,15.817155 -3.78734,4.522527 -7.55385,9.061693 -11.33077,13.592544 -4.18854,5.059628 -18.61357,22.50562 -22.90418,27.60598 -11.02652,13.10744 -22.35828,25.9616 -33.78649,38.73402 -1.4067,1.55015 -2.7802,3.12977 -4.22013,4.65042 -0.84132,0.88848 -2.70325,1.36562 -2.62095,2.57417 0.095,1.39562 2.00203,1.99692 3.00036,2.99794 0.21701,0.21759 -0.5955,-0.34947 -0.65636,-0.6476 -0.20805,-1.01913 0.39518,-6.18872 0.41741,-6.42133 0.62247,-5.41003 0.78967,-7.20778 1.64466,-12.93603 2.32221,-15.55795 5.56428,-30.96695 9.20565,-46.276564 1.20667,-4.830421 2.37758,-9.669534 3.62004,-14.491256 2.58793,-10.043235 5.01306,-18.787644 7.7789,-28.767933 1.16487,-4.203321 2.33935,-8.404088 3.51529,-12.604453 0.92287,-3.29638 1.92532,-6.572125 2.78121,-9.885767 0.55155,-2.135411 0.95979,-4.303834 1.43968,-6.455751 0.42585,-4.428186 1.77577,-5.816636 -4.79997,-7.552076 -0.9512,-0.251038 -1.78426,0.853418 -2.55484,1.454061 -1.45781,1.136297 -2.77283,2.440065 -4.09285,3.727558 -3.70736,3.616018 -9.36478,9.731146 -12.70986,13.288435 -7.55838,8.38802 -10.45209,11.392633 -17.75312,20.408692 -13.66141,16.870504 -25.99254,34.732686 -38.17806,52.634554 -6.5431,9.96821 -8.93373,13.52032 -15.13351,23.28982 -1.89034,2.97877 -3.72608,5.99046 -5.61109,8.97244 -4.81532,7.61758 -4.09241,6.39334 -8.73051,13.41814 -1.04694,1.58574 -2.086,3.17641 -3.129,4.76461 -0.88002,1.27737 -2.81107,4.27922 -4.11645,5.59816 -0.26726,0.27004 -1.22143,0.32284 -0.97083,0.60778 5.32872,6.05879 3.23014,2.13257 3.01181,0.79295 -0.12132,-0.74439 -0.13079,-1.50216 -0.19618,-2.25325 -0.34265,-8.8669 -0.0367,-17.74315 0.607,-26.59175 1.21945,-15.64589 2.90131,-31.2826 6.01189,-46.690403 1.22469,-5.536064 1.52093,-7.223728 3.025,-12.657699 2.10758,-7.614364 4.83978,-15.055617 8.14602,-22.25051 0.81129,-1.725649 1.59318,-3.464824 2.43384,-5.176947 4.01323,-8.173329 8.66182,-16.039422 13.58708,-23.714252 0.77337,-1.163992 2.72212,-4.03413 3.52094,-5.434802 0.7178,-1.258629 1.73922,-2.984486 1.30019,-4.518964 -0.0928,-0.324531 -0.33513,-0.588869 -0.50269,-0.883299 -0.25527,-0.257236 -0.45571,-0.580693 -0.76583,-0.771706 -3.89079,-2.396599 -6.42801,-3.805826 -10.81418,-4.369394 -0.88332,-0.113496 -1.77545,-0.146953 -2.66316,-0.220427 -0.97071,0.01441 -1.94264,-0.0062 -2.91216,0.04322 -5.3094,0.270519 -10.57064,1.178875 -15.86947,1.573404 l 3.95947,2.765981 z"
   sodipodi:nodetypes="sscsscsscscscccsscssscscsscscsssccsssscsscscccscsscscsssscscsssscssscscssscscscccscccssccsccccs"
   clip-path="url(#clipPath9150)"
   inkscape:path-effect="#path-effect9154"
   inkscape:original-d="m 335.13435,15.041719 c 5.15917,-0.761844 10.36168,-1.57881 15.5858,-1.769394 0.97522,-0.03559 1.95178,0.0051 2.92767,0.0076 2.34077,0.129515 4.64735,0.551407 6.85289,1.333557 0.50079,0.177601 1.90929,0.906046 1.47229,0.60799 -5.96427,-4.067937 -3.06625,-1.706094 -2.21687,-0.987801 0.18086,0.255906 0.42297,0.479431 0.54256,0.767723 0.56475,1.361376 -0.35432,3.018397 -0.96002,4.171142 -0.57146,1.087557 -2.85143,4.769553 -3.29709,5.498807 -4.6719,7.840382 -9.35084,15.694429 -13.37509,23.878935 -0.84356,1.715637 -1.62925,3.45795 -2.44388,5.186923 -3.32219,7.215767 -6.03665,14.68855 -8.11911,22.335108 -1.47508,5.416334 -1.7876,7.193341 -2.99015,12.707541 -2.86426,15.46941 -4.54249,31.12151 -5.9658,46.77171 -0.80097,8.76965 -1.27426,17.56671 -1.14649,26.37182 0.19594,3.80864 -0.25869,4.90446 5.02887,6.45625 0.53341,0.15657 0.87355,-0.68864 1.22593,-1.1106 1.12489,-1.34698 3.12034,-4.71824 3.86513,-5.91788 0.98903,-1.62139 1.96994,-3.2475 2.96705,-4.86408 4.21274,-6.83004 3.98081,-6.28897 8.38436,-13.61749 6.50002,-10.81756 4.88874,-8.49491 12.10363,-20.10967 2.6111,-4.20341 5.2868,-8.36807 7.9302,-12.5521 11.8486,-18.106346 24.29664,-35.899702 38.09114,-52.653936 7.69437,-9.345246 10.05323,-11.617706 18.06942,-20.195986 3.88248,-3.904684 8.98946,-9.189914 13.22793,-12.958913 1.3965,-1.24182 2.79275,-2.503972 4.35691,-3.536858 0.83886,-0.553946 2.86618,-0.192907 2.78626,-1.18009 -0.08,-0.989601 -2.25856,-1.490789 -2.94322,-0.758229 -0.89353,0.956051 0.013,2.591094 0.0193,3.886643 -0.36543,2.188407 -0.64839,4.391537 -1.09629,6.565214 -0.69694,3.382223 -1.52644,6.737213 -2.33675,10.095163 -2.61165,10.822927 -4.02445,15.986719 -6.88727,26.965008 -4.89045,18.753887 -2.78343,10.55696 -7.48272,29.188185 -4.82716,19.388179 -8.89802,38.944209 -11.97199,58.670599 -0.19214,1.30868 -0.40512,2.61464 -0.57644,3.9261 -0.10105,0.77357 -0.2667,1.5483 -0.24057,2.32775 0.0651,1.9419 4.56757,2.45046 5.76941,2.2333 1.23443,-0.22306 1.63306,-1.86625 2.42494,-2.81935 1.32903,-1.59962 2.62478,-3.2254 3.93717,-4.83811 1.90422,-2.31995 3.79536,-4.65028 5.7127,-6.95988 9.93422,-11.9667 5.47498,-6.39146 16.37155,-19.60674 11.12544,-13.49286 22.13903,-27.07413 33.25905,-40.57149 13.52841,-16.266684 14.52148,-17.79926 28.85968,-33.391738 6.41233,-6.973274 21.2519,-23.704842 27.53929,-30.247364 6.66993,-6.76504 3.52967,-3.644158 9.39594,-9.386546 l -3.58147,-2.136864 v 0 c -5.55491,5.941934 -2.57076,2.723131 -8.93834,9.668923 -7.87791,8.666607 -23.58169,25.963289 -31.25005,34.80921 -7.16293,8.262878 -5.8385,7.419016 -12.87137,15.817155 -3.78734,4.522527 -7.55385,9.061693 -11.33077,13.592544 -4.18854,5.059628 -18.61357,22.50562 -22.90418,27.60598 -11.02652,13.10744 -22.35828,25.9616 -33.78649,38.73402 -1.4067,1.55015 -2.7802,3.12977 -4.22013,4.65042 -0.84132,0.88848 -2.70325,1.36562 -2.62095,2.57417 0.095,1.39562 2.00203,1.99692 3.00036,2.99794 0.21701,0.21759 -0.5955,-0.34947 -0.65636,-0.6476 -0.20805,-1.01913 0.39518,-6.18872 0.41741,-6.42133 0.62247,-5.41003 0.78967,-7.20778 1.64466,-12.93603 2.32221,-15.55795 5.56428,-30.96695 9.20565,-46.276564 1.20667,-4.830421 2.37758,-9.669534 3.62004,-14.491256 2.58793,-10.043235 5.01306,-18.787644 7.7789,-28.767933 1.16487,-4.203321 2.33935,-8.404088 3.51529,-12.604453 0.92287,-3.29638 1.92532,-6.572125 2.78121,-9.885767 0.55155,-2.135411 0.95979,-4.303834 1.43968,-6.455751 0.42585,-4.428186 1.77577,-5.816636 -4.79997,-7.552076 -0.9512,-0.251038 -1.78426,0.853418 -2.55484,1.454061 -1.45781,1.136297 -2.77283,2.440065 -4.09285,3.727558 -3.70736,3.616018 -9.36478,9.731146 -12.70986,13.288435 -7.55838,8.38802 -10.45209,11.392633 -17.75312,20.408692 -13.66141,16.870504 -25.99254,34.732686 -38.17806,52.634554 -6.5431,9.96821 -8.93373,13.52032 -15.13351,23.28982 -1.89034,2.97877 -3.72608,5.99046 -5.61109,8.97244 -4.81532,7.61758 -4.09241,6.39334 -8.73051,13.41814 -1.04694,1.58574 -2.086,3.17641 -3.129,4.76461 -0.88002,1.27737 -2.81107,4.27922 -4.11645,5.59816 -0.26726,0.27004 -1.22143,0.32284 -0.97083,0.60778 5.32872,6.05879 3.23014,2.13257 3.01181,0.79295 -0.12132,-0.74439 -0.13079,-1.50216 -0.19618,-2.25325 -0.34265,-8.8669 -0.0367,-17.74315 0.607,-26.59175 1.21945,-15.64589 2.90131,-31.2826 6.01189,-46.690403 1.22469,-5.536064 1.52093,-7.223728 3.025,-12.657699 2.10758,-7.614364 4.83978,-15.055617 8.14602,-22.25051 0.81129,-1.725649 1.59318,-3.464824 2.43384,-5.176947 4.01323,-8.173329 8.66182,-16.039422 13.58708,-23.714252 0.77337,-1.163992 2.72212,-4.03413 3.52094,-5.434802 0.7178,-1.258629 1.73922,-2.984486 1.30019,-4.518964 -0.0928,-0.324531 -0.33513,-0.588869 -0.50269,-0.883299 -0.25527,-0.257236 -0.45571,-0.580693 -0.76583,-0.771706 -3.89079,-2.396599 -6.42801,-3.805826 -10.81418,-4.369394 -0.88332,-0.113496 -1.77545,-0.146953 -2.66316,-0.220427 -0.97071,0.01441 -1.94264,-0.0062 -2.91216,0.04322 -5.3094,0.270519 -10.57064,1.178875 -15.86947,1.573404 l 3.95947,2.765981 z"
   transform="matrix(2.1925399,0,0,2.2499584,-682.2469,-6.5969667)" /></svg>
